{"title":"Raja Natwarlal (2014) [1CD] DVDSCR Rip Xvid Mp3 M.Sub TeamTNT","uid":10952494,"size":754571378,"categoryP":"video","categoryS":"movies","magnet":"?xt=urn:btih:8e8ab0a56161aa2f34336834ce5e473965eb0ac6&amp;dn=Raja+Natwarlal+%282014%29+%5B1CD%5D+DVDSCR+Rip+Xvid+Mp3+M.Sub+TeamTNT&amp;tr=udp%3A%2F%2Ftracker.openbittorrent.com%3A80&amp;tr=udp%3A%2F%2Fopen.demonii.com%3A1337&amp;tr=udp%3A%2F%2Ftracker.coppersurfer.tk%3A6969&amp;tr=udp%3A%2F%2Fexodus.desync.com%3A6969","seeders":2,"leechers":2,"uploader":"inovai","files":21,"time":1409653007,"description":"\nRaja Natwarlal (2014) [1CD] DVDSCR Rip Xvid Mp3 M.Sub TeamTNT Exclusive\n\nCover:\n &lt;a href=&quot;\nhttp://forum.primetimeshow.in/viewtopic.php?f=7&amp;t=617&quot; rel=&quot;nofollow&quot; target=&quot;_NEW&quot;&gt;\nhttp://forum.primetimeshow.in/viewtopic.php?f=7&amp;t=617&lt;/a&gt;\n\nMovie:............Raja Natwarlal \nSource: ..........DVDSCR @ TeamTNT \nYear:.............2014 \n\nScreenshots:\n &lt;a href=&quot;\nhttp://img.primetimeshow.in/share.php?id=382F_54057AB8&quot; rel=&quot;nofollow&quot; target=&quot;_NEW&quot;&gt;\nhttp://img.primetimeshow.in/share.php?id=382F_54057AB8&lt;/a&gt;\n &lt;a href=&quot;\nhttp://img.primetimeshow.in/share.php?id=267C_54057AB8&quot; rel=&quot;nofollow&quot; target=&quot;_NEW&quot;&gt;\nhttp://img.primetimeshow.in/share.php?id=267C_54057AB8&lt;/a&gt;\n &lt;a href=&quot;\nhttp://img.primetimeshow.in/share.php?id=5274_54057AB8&quot; rel=&quot;nofollow&quot; target=&quot;_NEW&quot;&gt;\nhttp://img.primetimeshow.in/share.php?id=5274_54057AB8&lt;/a&gt;\n &lt;a href=&quot;\nhttp://img.primetimeshow.in/share.php?id=0DA1_54057AB8&quot; rel=&quot;nofollow&quot; target=&quot;_NEW&quot;&gt;\nhttp://img.primetimeshow.in/share.php?id=0DA1_54057AB8&lt;/a&gt;\n &lt;a href=&quot;\nhttp://img.primetimeshow.in/share.php?id=F24F_54057AB8&quot; rel=&quot;nofollow&quot; target=&quot;_NEW&quot;&gt;\nhttp://img.primetimeshow.in/share.php?id=F24F_54057AB8&lt;/a&gt;\n\nGeneral\nComplete name : D:Raja Natwarlal.avi\nFormat : AVI\nFormat/Info : Audio Video Interleave\nFile size : 695 MiB\nDuration : 2h 16mn\nOverall bit rate : 712 Kbps\n\nVideo\nID : 0\nFormat : MPEG-4 Visual\nFormat profile : Advanced Simple@L5\nFormat settings, BVOP : 2\nFormat settings, QPel : No\nFormat settings, GMC : No warppoints\nFormat settings, Matrix : Default (H.263)\nCodec ID : XVID\nCodec ID/Hint : XviD\nDuration : 2h 16mn\nBit rate : 626 Kbps\nWidth : 656 pixels\nHeight : 272 pixels\nDisplay aspect ratio : 2.40:1\nFrame rate : 23.976 fps\nColor space : YUV\nChroma subsampling : 4:2:0\nBit depth : 8 bits\nScan type : Progressive\nCompression mode : Lossy\nBits/(Pixel*Frame) : 0.146\nStream size : 611 MiB (88%)\nWriting library : XviD 1.2.1 (UTC 2008-12-04)\n\nAudio\nID : 1\nFormat : MPEG Audio\nFormat version : Version 1\nFormat profile : Layer 3\nMode : Joint stereo\nMode extension : MS Stereo\nCodec ID : 55\nCodec ID/Hint : MP3\nDuration : 2h 16mn\nBit rate mode : Constant\nBit rate : 80.0 Kbps\nChannel(s) : 2 channels\nSampling rate : 32.0 KHz\nCompression mode : Lossy\nStream size : 78.1 MiB (11%)\nAlignment : Aligned on interleaves\nInterleave, duration : 167 ms (4.00 video frames)\nInterleave, preload duration : 216 ms\nTitle : VTS_01_1 T01 3_2ch 448Kbps DELAY 0ms\nWriting library : LAME3.99r\nEncoding settings : -m j -V 4 -q 2 -lowpass 13.5 -b 80\n\nSample included in torrent!\n\nthanks to TeamTNT!!\n\nSeed n ENjoy!","torrent":{"xt":"urn:btih:8e8ab0a56161aa2f34336834ce5e473965eb0ac6","amp;dn":"Raja+Natwarlal+%282014%29+%5B1CD%5D+DVDSCR+Rip+Xvid+Mp3+M.Sub+TeamTNT","amp;tr":["udp%3A%2F%2Ftracker.openbittorrent.com%3A80","udp%3A%2F%2Fopen.demonii.com%3A1337","udp%3A%2F%2Ftracker.coppersurfer.tk%3A6969","udp%3A%2F%2Fexodus.desync.com%3A6969"],"infoHash":"8e8ab0a56161aa2f34336834ce5e473965eb0ac6","infoHashBuffer":{"type":"Buffer","data":[142,138,176,165,97,97,170,47,52,51,104,52,206,94,71,57,101,235,10,198]},"announce":[],"urlList":[]}}